<mxfile host="Electron" modified="2023-12-24T09:05:21.464Z" agent="Mozilla/5.0 (Macintosh; Intel Mac OS X 10_15_7) AppleWebKit/537.36 (KHTML, like Gecko) draw.io/22.1.11 Chrome/114.0.5735.289 Electron/25.9.8 Safari/537.36" etag="3e0UHs6UOPWE8LgRhlt0" version="22.1.11" type="device">
  <diagram name="Page-1" id="7Rp7iIk4cwkabrk9PIKr">
    <mxGraphModel dx="1368" dy="1029" grid="1" gridSize="10" guides="1" tooltips="1" connect="1" arrows="1" fold="1" page="1" pageScale="1" pageWidth="827" pageHeight="1169" math="0" shadow="0">
      <root>
        <mxCell id="0" />
        <mxCell id="1" parent="0" />
        <mxCell id="bbOfw9jiein21ZM9u2ZV-1" value="User1" style="rounded=0;whiteSpace=wrap;html=1;" vertex="1" parent="1">
          <mxGeometry x="80" y="80" width="240" height="40" as="geometry" />
        </mxCell>
        <mxCell id="bbOfw9jiein21ZM9u2ZV-2" value="User1 Game Account" style="rounded=0;whiteSpace=wrap;html=1;" vertex="1" parent="1">
          <mxGeometry x="320" y="80" width="240" height="40" as="geometry" />
        </mxCell>
        <mxCell id="bbOfw9jiein21ZM9u2ZV-3" value="User2" style="rounded=0;whiteSpace=wrap;html=1;" vertex="1" parent="1">
          <mxGeometry x="560" y="80" width="240" height="40" as="geometry" />
        </mxCell>
        <mxCell id="bbOfw9jiein21ZM9u2ZV-4" value="User2 Game Account" style="rounded=0;whiteSpace=wrap;html=1;" vertex="1" parent="1">
          <mxGeometry x="800" y="80" width="240" height="40" as="geometry" />
        </mxCell>
        <mxCell id="bbOfw9jiein21ZM9u2ZV-5" value="" style="endArrow=none;html=1;rounded=0;entryX=0;entryY=1;entryDx=0;entryDy=0;" edge="1" parent="1" target="bbOfw9jiein21ZM9u2ZV-1">
          <mxGeometry width="50" height="50" relative="1" as="geometry">
            <mxPoint x="80" y="2000" as="sourcePoint" />
            <mxPoint x="210" y="370" as="targetPoint" />
          </mxGeometry>
        </mxCell>
        <mxCell id="bbOfw9jiein21ZM9u2ZV-6" value="" style="endArrow=none;html=1;rounded=0;entryX=0;entryY=1;entryDx=0;entryDy=0;" edge="1" parent="1">
          <mxGeometry width="50" height="50" relative="1" as="geometry">
            <mxPoint x="320" y="2000" as="sourcePoint" />
            <mxPoint x="320" y="120" as="targetPoint" />
          </mxGeometry>
        </mxCell>
        <mxCell id="bbOfw9jiein21ZM9u2ZV-7" value="" style="endArrow=none;html=1;rounded=0;entryX=0;entryY=1;entryDx=0;entryDy=0;" edge="1" parent="1">
          <mxGeometry width="50" height="50" relative="1" as="geometry">
            <mxPoint x="560" y="2000" as="sourcePoint" />
            <mxPoint x="560" y="120" as="targetPoint" />
          </mxGeometry>
        </mxCell>
        <mxCell id="bbOfw9jiein21ZM9u2ZV-8" value="" style="endArrow=none;html=1;rounded=0;entryX=0;entryY=1;entryDx=0;entryDy=0;" edge="1" parent="1">
          <mxGeometry width="50" height="50" relative="1" as="geometry">
            <mxPoint x="800" y="2000" as="sourcePoint" />
            <mxPoint x="800" y="120" as="targetPoint" />
          </mxGeometry>
        </mxCell>
        <mxCell id="bbOfw9jiein21ZM9u2ZV-9" value="" style="endArrow=none;html=1;rounded=0;entryX=0;entryY=1;entryDx=0;entryDy=0;" edge="1" parent="1">
          <mxGeometry width="50" height="50" relative="1" as="geometry">
            <mxPoint x="1040" y="2000" as="sourcePoint" />
            <mxPoint x="1040" y="120" as="targetPoint" />
          </mxGeometry>
        </mxCell>
        <mxCell id="bbOfw9jiein21ZM9u2ZV-12" value="" style="edgeStyle=orthogonalEdgeStyle;rounded=0;orthogonalLoop=1;jettySize=auto;html=1;" edge="1" parent="1" source="bbOfw9jiein21ZM9u2ZV-10" target="bbOfw9jiein21ZM9u2ZV-11">
          <mxGeometry relative="1" as="geometry" />
        </mxCell>
        <mxCell id="bbOfw9jiein21ZM9u2ZV-14" value="" style="edgeStyle=orthogonalEdgeStyle;rounded=0;orthogonalLoop=1;jettySize=auto;html=1;" edge="1" parent="1" source="bbOfw9jiein21ZM9u2ZV-10" target="bbOfw9jiein21ZM9u2ZV-13">
          <mxGeometry relative="1" as="geometry" />
        </mxCell>
        <mxCell id="bbOfw9jiein21ZM9u2ZV-10" value="Create Game" style="rounded=1;whiteSpace=wrap;html=1;" vertex="1" parent="1">
          <mxGeometry x="140" y="150" width="120" height="60" as="geometry" />
        </mxCell>
        <mxCell id="bbOfw9jiein21ZM9u2ZV-11" value="Transfer Gas Fee" style="rounded=1;whiteSpace=wrap;html=1;" vertex="1" parent="1">
          <mxGeometry x="380" y="150" width="120" height="60" as="geometry" />
        </mxCell>
        <mxCell id="bbOfw9jiein21ZM9u2ZV-16" value="" style="edgeStyle=orthogonalEdgeStyle;rounded=0;orthogonalLoop=1;jettySize=auto;html=1;dashed=1;" edge="1" parent="1" source="bbOfw9jiein21ZM9u2ZV-13" target="bbOfw9jiein21ZM9u2ZV-15">
          <mxGeometry relative="1" as="geometry" />
        </mxCell>
        <mxCell id="bbOfw9jiein21ZM9u2ZV-13" value="Smart Contract:&lt;br&gt;Create Board,&lt;br&gt;Input: pkX, pkY,&lt;br&gt;Output: GameId" style="rounded=1;whiteSpace=wrap;html=1;" vertex="1" parent="1">
          <mxGeometry x="140" y="280" width="120" height="60" as="geometry" />
        </mxCell>
        <mxCell id="bbOfw9jiein21ZM9u2ZV-18" value="" style="edgeStyle=orthogonalEdgeStyle;rounded=0;orthogonalLoop=1;jettySize=auto;html=1;" edge="1" parent="1" source="bbOfw9jiein21ZM9u2ZV-15" target="bbOfw9jiein21ZM9u2ZV-17">
          <mxGeometry relative="1" as="geometry" />
        </mxCell>
        <mxCell id="bbOfw9jiein21ZM9u2ZV-20" style="edgeStyle=orthogonalEdgeStyle;rounded=0;orthogonalLoop=1;jettySize=auto;html=1;entryX=0.5;entryY=0;entryDx=0;entryDy=0;" edge="1" parent="1" source="bbOfw9jiein21ZM9u2ZV-15" target="bbOfw9jiein21ZM9u2ZV-19">
          <mxGeometry relative="1" as="geometry" />
        </mxCell>
        <mxCell id="bbOfw9jiein21ZM9u2ZV-15" value="Join Game" style="rounded=1;whiteSpace=wrap;html=1;" vertex="1" parent="1">
          <mxGeometry x="620" y="280" width="120" height="60" as="geometry" />
        </mxCell>
        <mxCell id="bbOfw9jiein21ZM9u2ZV-17" value="Transfer Gas Fee" style="rounded=1;whiteSpace=wrap;html=1;" vertex="1" parent="1">
          <mxGeometry x="860" y="280" width="120" height="60" as="geometry" />
        </mxCell>
        <mxCell id="bbOfw9jiein21ZM9u2ZV-22" value="" style="edgeStyle=orthogonalEdgeStyle;rounded=0;orthogonalLoop=1;jettySize=auto;html=1;dashed=1;" edge="1" parent="1" source="bbOfw9jiein21ZM9u2ZV-19" target="bbOfw9jiein21ZM9u2ZV-21">
          <mxGeometry relative="1" as="geometry" />
        </mxCell>
        <mxCell id="bbOfw9jiein21ZM9u2ZV-19" value="Smart Contract:&lt;br&gt;Join Game,&lt;br&gt;Input: pkX, pkY, GameId" style="rounded=1;whiteSpace=wrap;html=1;" vertex="1" parent="1">
          <mxGeometry x="620" y="400" width="120" height="60" as="geometry" />
        </mxCell>
        <mxCell id="bbOfw9jiein21ZM9u2ZV-24" value="" style="edgeStyle=orthogonalEdgeStyle;rounded=0;orthogonalLoop=1;jettySize=auto;html=1;dashed=1;" edge="1" parent="1" source="bbOfw9jiein21ZM9u2ZV-21" target="bbOfw9jiein21ZM9u2ZV-23">
          <mxGeometry relative="1" as="geometry">
            <Array as="points">
              <mxPoint x="200" y="580" />
            </Array>
          </mxGeometry>
        </mxCell>
        <mxCell id="bbOfw9jiein21ZM9u2ZV-21" value="Smart Contract:&lt;br&gt;Start Game" style="rounded=1;whiteSpace=wrap;html=1;" vertex="1" parent="1">
          <mxGeometry x="140" y="400" width="120" height="60" as="geometry" />
        </mxCell>
        <mxCell id="bbOfw9jiein21ZM9u2ZV-26" value="" style="edgeStyle=orthogonalEdgeStyle;rounded=0;orthogonalLoop=1;jettySize=auto;html=1;dashed=1;" edge="1" parent="1" source="bbOfw9jiein21ZM9u2ZV-23" target="bbOfw9jiein21ZM9u2ZV-25">
          <mxGeometry relative="1" as="geometry" />
        </mxCell>
        <mxCell id="bbOfw9jiein21ZM9u2ZV-23" value="&lt;font style=&quot;font-size: 12px;&quot;&gt;Smart Contract:&lt;br&gt;Shuffle Deck.&lt;br&gt;Shuffle and encrypt Cards, s&lt;span style=&quot;background-color: rgb(255, 255, 255);&quot;&gt;end proof and encrypted cards&lt;/span&gt;&lt;/font&gt;" style="rounded=1;whiteSpace=wrap;html=1;" vertex="1" parent="1">
          <mxGeometry x="360" y="520" width="160" height="120" as="geometry" />
        </mxCell>
        <mxCell id="bbOfw9jiein21ZM9u2ZV-28" value="" style="edgeStyle=orthogonalEdgeStyle;rounded=0;orthogonalLoop=1;jettySize=auto;html=1;entryX=1;entryY=0.5;entryDx=0;entryDy=0;dashed=1;" edge="1" parent="1" source="bbOfw9jiein21ZM9u2ZV-25" target="bbOfw9jiein21ZM9u2ZV-27">
          <mxGeometry relative="1" as="geometry">
            <mxPoint x="530" y="740" as="targetPoint" />
            <Array as="points">
              <mxPoint x="930" y="710" />
            </Array>
          </mxGeometry>
        </mxCell>
        <mxCell id="bbOfw9jiein21ZM9u2ZV-25" value="&lt;font style=&quot;font-size: 12px;&quot;&gt;Smart Contract:&lt;br&gt;Shuffle Deck.&lt;br&gt;Shuffle and encrypt Cards, s&lt;span style=&quot;background-color: rgb(255, 255, 255);&quot;&gt;end proof and encrypted cards&lt;/span&gt;&lt;/font&gt;" style="rounded=1;whiteSpace=wrap;html=1;" vertex="1" parent="1">
          <mxGeometry x="850" y="520" width="160" height="120" as="geometry" />
        </mxCell>
        <mxCell id="bbOfw9jiein21ZM9u2ZV-30" value="" style="edgeStyle=orthogonalEdgeStyle;rounded=0;orthogonalLoop=1;jettySize=auto;html=1;dashed=1;entryX=0;entryY=0.5;entryDx=0;entryDy=0;" edge="1" parent="1" source="bbOfw9jiein21ZM9u2ZV-27" target="bbOfw9jiein21ZM9u2ZV-29">
          <mxGeometry relative="1" as="geometry">
            <Array as="points">
              <mxPoint x="430" y="760" />
            </Array>
          </mxGeometry>
        </mxCell>
        <mxCell id="bbOfw9jiein21ZM9u2ZV-34" value="" style="edgeStyle=orthogonalEdgeStyle;rounded=0;orthogonalLoop=1;jettySize=auto;html=1;dashed=1;entryX=0;entryY=0.5;entryDx=0;entryDy=0;fillColor=#d5e8d4;strokeColor=#82b366;" edge="1" parent="1" source="bbOfw9jiein21ZM9u2ZV-27" target="bbOfw9jiein21ZM9u2ZV-33">
          <mxGeometry relative="1" as="geometry">
            <mxPoint x="820" y="960" as="targetPoint" />
            <Array as="points">
              <mxPoint x="430" y="950" />
            </Array>
          </mxGeometry>
        </mxCell>
        <mxCell id="bbOfw9jiein21ZM9u2ZV-27" value="&lt;font style=&quot;font-size: 12px;&quot;&gt;Smart Contract:&lt;br&gt;Dealing.&lt;br&gt;&lt;span style=&quot;background-color: rgb(251, 251, 251);&quot;&gt;De&lt;/span&gt;&lt;span style=&quot;background-color: rgb(255, 255, 255);&quot;&gt;crypted user2&#39;s hand cards&lt;/span&gt;&lt;/font&gt;" style="rounded=1;whiteSpace=wrap;html=1;" vertex="1" parent="1">
          <mxGeometry x="350" y="680" width="160" height="60" as="geometry" />
        </mxCell>
        <mxCell id="bbOfw9jiein21ZM9u2ZV-32" value="" style="edgeStyle=orthogonalEdgeStyle;rounded=0;orthogonalLoop=1;jettySize=auto;html=1;entryX=1;entryY=0.5;entryDx=0;entryDy=0;dashed=1;fillColor=#d5e8d4;strokeColor=#82b366;" edge="1" parent="1" source="bbOfw9jiein21ZM9u2ZV-29" target="bbOfw9jiein21ZM9u2ZV-31">
          <mxGeometry relative="1" as="geometry">
            <mxPoint x="300" y="830" as="targetPoint" />
            <Array as="points">
              <mxPoint x="930" y="870" />
            </Array>
          </mxGeometry>
        </mxCell>
        <mxCell id="bbOfw9jiein21ZM9u2ZV-35" style="edgeStyle=orthogonalEdgeStyle;rounded=0;orthogonalLoop=1;jettySize=auto;html=1;entryX=1;entryY=0.5;entryDx=0;entryDy=0;dashed=1;" edge="1" parent="1" source="bbOfw9jiein21ZM9u2ZV-29" target="bbOfw9jiein21ZM9u2ZV-36">
          <mxGeometry relative="1" as="geometry">
            <mxPoint x="430" y="1110" as="targetPoint" />
            <Array as="points">
              <mxPoint x="930" y="1070" />
            </Array>
          </mxGeometry>
        </mxCell>
        <mxCell id="bbOfw9jiein21ZM9u2ZV-29" value="&lt;font style=&quot;font-size: 12px;&quot;&gt;Smart Contract:&lt;br&gt;Dealing.&lt;br&gt;&lt;span style=&quot;background-color: rgb(251, 251, 251);&quot;&gt;De&lt;/span&gt;&lt;span style=&quot;background-color: rgb(255, 255, 255);&quot;&gt;crypted user1&#39;s hand cards&lt;/span&gt;&lt;/font&gt;" style="rounded=1;whiteSpace=wrap;html=1;" vertex="1" parent="1">
          <mxGeometry x="850" y="730" width="160" height="60" as="geometry" />
        </mxCell>
        <mxCell id="bbOfw9jiein21ZM9u2ZV-38" style="edgeStyle=orthogonalEdgeStyle;rounded=0;orthogonalLoop=1;jettySize=auto;html=1;" edge="1" parent="1" source="bbOfw9jiein21ZM9u2ZV-31" target="bbOfw9jiein21ZM9u2ZV-37">
          <mxGeometry relative="1" as="geometry" />
        </mxCell>
        <mxCell id="bbOfw9jiein21ZM9u2ZV-31" value="&lt;font style=&quot;font-size: 12px;&quot;&gt;&lt;span style=&quot;background-color: rgb(251, 251, 251);&quot;&gt;De&lt;/span&gt;&lt;span style=&quot;background-color: rgb(255, 255, 255);&quot;&gt;crypted cards locally&lt;/span&gt;&lt;/font&gt;" style="rounded=1;whiteSpace=wrap;html=1;" vertex="1" parent="1">
          <mxGeometry x="120" y="840" width="160" height="60" as="geometry" />
        </mxCell>
        <mxCell id="bbOfw9jiein21ZM9u2ZV-33" value="De&lt;span style=&quot;border-color: var(--border-color); background-color: rgb(255, 255, 255);&quot;&gt;crypted cards locally&lt;/span&gt;" style="rounded=1;whiteSpace=wrap;html=1;" vertex="1" parent="1">
          <mxGeometry x="600" y="920" width="160" height="60" as="geometry" />
        </mxCell>
        <mxCell id="bbOfw9jiein21ZM9u2ZV-41" value="" style="edgeStyle=orthogonalEdgeStyle;rounded=0;orthogonalLoop=1;jettySize=auto;html=1;" edge="1" parent="1" source="bbOfw9jiein21ZM9u2ZV-36" target="bbOfw9jiein21ZM9u2ZV-40">
          <mxGeometry relative="1" as="geometry">
            <Array as="points">
              <mxPoint x="430" y="1190" />
            </Array>
          </mxGeometry>
        </mxCell>
        <mxCell id="bbOfw9jiein21ZM9u2ZV-45" style="edgeStyle=orthogonalEdgeStyle;rounded=0;orthogonalLoop=1;jettySize=auto;html=1;entryX=0.5;entryY=0;entryDx=0;entryDy=0;dashed=1;" edge="1" parent="1" source="bbOfw9jiein21ZM9u2ZV-36" target="bbOfw9jiein21ZM9u2ZV-42">
          <mxGeometry relative="1" as="geometry">
            <Array as="points">
              <mxPoint x="430" y="1130" />
              <mxPoint x="920" y="1130" />
            </Array>
          </mxGeometry>
        </mxCell>
        <mxCell id="bbOfw9jiein21ZM9u2ZV-36" value="Call smart contract" style="rounded=1;whiteSpace=wrap;html=1;" vertex="1" parent="1">
          <mxGeometry x="350" y="1040" width="160" height="60" as="geometry" />
        </mxCell>
        <mxCell id="bbOfw9jiein21ZM9u2ZV-39" style="edgeStyle=orthogonalEdgeStyle;rounded=0;orthogonalLoop=1;jettySize=auto;html=1;entryX=0;entryY=0.5;entryDx=0;entryDy=0;" edge="1" parent="1" source="bbOfw9jiein21ZM9u2ZV-37" target="bbOfw9jiein21ZM9u2ZV-36">
          <mxGeometry relative="1" as="geometry" />
        </mxCell>
        <mxCell id="bbOfw9jiein21ZM9u2ZV-37" value="Play turn: fold/call/raise" style="rounded=1;whiteSpace=wrap;html=1;" vertex="1" parent="1">
          <mxGeometry x="120" y="1040" width="160" height="60" as="geometry" />
        </mxCell>
        <mxCell id="bbOfw9jiein21ZM9u2ZV-44" style="edgeStyle=orthogonalEdgeStyle;rounded=0;orthogonalLoop=1;jettySize=auto;html=1;entryX=0;entryY=0.5;entryDx=0;entryDy=0;" edge="1" parent="1" source="bbOfw9jiein21ZM9u2ZV-40" target="bbOfw9jiein21ZM9u2ZV-42">
          <mxGeometry relative="1" as="geometry" />
        </mxCell>
        <mxCell id="bbOfw9jiein21ZM9u2ZV-40" value="Play turn: fold/call/raise" style="rounded=1;whiteSpace=wrap;html=1;" vertex="1" parent="1">
          <mxGeometry x="600" y="1160" width="160" height="60" as="geometry" />
        </mxCell>
        <mxCell id="bbOfw9jiein21ZM9u2ZV-47" style="edgeStyle=orthogonalEdgeStyle;rounded=0;orthogonalLoop=1;jettySize=auto;html=1;entryX=1;entryY=0.5;entryDx=0;entryDy=0;dashed=1;" edge="1" parent="1" source="bbOfw9jiein21ZM9u2ZV-42" target="bbOfw9jiein21ZM9u2ZV-46">
          <mxGeometry relative="1" as="geometry">
            <Array as="points">
              <mxPoint x="920" y="1310" />
            </Array>
          </mxGeometry>
        </mxCell>
        <mxCell id="bbOfw9jiein21ZM9u2ZV-42" value="Call smart contract" style="rounded=1;whiteSpace=wrap;html=1;" vertex="1" parent="1">
          <mxGeometry x="840" y="1160" width="160" height="60" as="geometry" />
        </mxCell>
        <mxCell id="bbOfw9jiein21ZM9u2ZV-49" value="" style="edgeStyle=orthogonalEdgeStyle;rounded=0;orthogonalLoop=1;jettySize=auto;html=1;dashed=1;" edge="1" parent="1" source="bbOfw9jiein21ZM9u2ZV-46" target="bbOfw9jiein21ZM9u2ZV-48">
          <mxGeometry relative="1" as="geometry">
            <Array as="points">
              <mxPoint x="440" y="1390" />
            </Array>
          </mxGeometry>
        </mxCell>
        <mxCell id="bbOfw9jiein21ZM9u2ZV-46" value="&lt;font style=&quot;font-size: 12px;&quot;&gt;Smart Contract:&lt;br&gt;Dealing.&lt;br&gt;&lt;span style=&quot;background-color: rgb(251, 251, 251);&quot;&gt;De&lt;/span&gt;&lt;span style=&quot;background-color: rgb(255, 255, 255);&quot;&gt;crypted public cards&lt;/span&gt;&lt;/font&gt;" style="rounded=1;whiteSpace=wrap;html=1;" vertex="1" parent="1">
          <mxGeometry x="360" y="1280" width="160" height="60" as="geometry" />
        </mxCell>
        <mxCell id="bbOfw9jiein21ZM9u2ZV-56" value="" style="edgeStyle=orthogonalEdgeStyle;rounded=0;orthogonalLoop=1;jettySize=auto;html=1;dashed=1;" edge="1" parent="1" source="bbOfw9jiein21ZM9u2ZV-48" target="bbOfw9jiein21ZM9u2ZV-55">
          <mxGeometry relative="1" as="geometry">
            <Array as="points">
              <mxPoint x="920" y="1550" />
            </Array>
          </mxGeometry>
        </mxCell>
        <mxCell id="bbOfw9jiein21ZM9u2ZV-48" value="&lt;font style=&quot;font-size: 12px;&quot;&gt;Smart Contract:&lt;br&gt;Dealing.&lt;br&gt;&lt;span style=&quot;background-color: rgb(251, 251, 251);&quot;&gt;De&lt;/span&gt;&lt;span style=&quot;background-color: rgb(255, 255, 255);&quot;&gt;crypted public cards&lt;/span&gt;&lt;/font&gt;" style="rounded=1;whiteSpace=wrap;html=1;" vertex="1" parent="1">
          <mxGeometry x="840" y="1360" width="160" height="60" as="geometry" />
        </mxCell>
        <mxCell id="bbOfw9jiein21ZM9u2ZV-50" value="" style="endArrow=none;html=1;rounded=0;fillColor=#f8cecc;strokeColor=#b85450;" edge="1" parent="1">
          <mxGeometry width="50" height="50" relative="1" as="geometry">
            <mxPoint x="40" y="800" as="sourcePoint" />
            <mxPoint x="1080" y="800" as="targetPoint" />
          </mxGeometry>
        </mxCell>
        <mxCell id="bbOfw9jiein21ZM9u2ZV-51" value="" style="endArrow=none;html=1;rounded=0;fillColor=#f8cecc;strokeColor=#b85450;" edge="1" parent="1">
          <mxGeometry width="50" height="50" relative="1" as="geometry">
            <mxPoint x="40" y="1480" as="sourcePoint" />
            <mxPoint x="1080" y="1480" as="targetPoint" />
          </mxGeometry>
        </mxCell>
        <mxCell id="bbOfw9jiein21ZM9u2ZV-52" value="" style="endArrow=classic;html=1;rounded=0;fillColor=#f8cecc;strokeColor=#b85450;" edge="1" parent="1">
          <mxGeometry width="50" height="50" relative="1" as="geometry">
            <mxPoint x="1081.3333333333333" y="1480" as="sourcePoint" />
            <mxPoint x="1080" y="800" as="targetPoint" />
          </mxGeometry>
        </mxCell>
        <mxCell id="bbOfw9jiein21ZM9u2ZV-58" value="" style="edgeStyle=orthogonalEdgeStyle;rounded=0;orthogonalLoop=1;jettySize=auto;html=1;dashed=1;" edge="1" parent="1" source="bbOfw9jiein21ZM9u2ZV-55" target="bbOfw9jiein21ZM9u2ZV-57">
          <mxGeometry relative="1" as="geometry">
            <Array as="points">
              <mxPoint x="440" y="1630" />
            </Array>
          </mxGeometry>
        </mxCell>
        <mxCell id="bbOfw9jiein21ZM9u2ZV-55" value="&lt;font style=&quot;font-size: 12px;&quot;&gt;Smart Contract:&lt;br&gt;Open.&lt;br&gt;&lt;span style=&quot;background-color: rgb(251, 251, 251);&quot;&gt;De&lt;/span&gt;&lt;span style=&quot;background-color: rgb(255, 255, 255);&quot;&gt;crypted cards and send proof on chain&lt;/span&gt;&lt;/font&gt;" style="rounded=1;whiteSpace=wrap;html=1;" vertex="1" parent="1">
          <mxGeometry x="360" y="1520" width="160" height="60" as="geometry" />
        </mxCell>
        <mxCell id="bbOfw9jiein21ZM9u2ZV-57" value="&lt;font style=&quot;font-size: 12px;&quot;&gt;Smart Contract:&lt;br&gt;Open.&lt;br&gt;&lt;span style=&quot;background-color: rgb(251, 251, 251);&quot;&gt;De&lt;/span&gt;&lt;span style=&quot;background-color: rgb(255, 255, 255);&quot;&gt;crypted cards and send proof on chain&lt;/span&gt;&lt;/font&gt;" style="rounded=1;whiteSpace=wrap;html=1;" vertex="1" parent="1">
          <mxGeometry x="840" y="1600" width="160" height="60" as="geometry" />
        </mxCell>
      </root>
    </mxGraphModel>
  </diagram>
</mxfile>
